<svg xmlns="http://www.w3.org/2000/svg" viewBox="0 0 800 500" width="800" height="500">
  <defs>
    <linearGradient id="bg" x1="0%" y1="0%" x2="100%" y2="100%">
      <stop offset="0%" stop-color="#4CAF50"/>
      <stop offset="100%" stop-color="#2E7D32"/>
    </linearGradient>
  </defs>
  <rect width="800" height="500" fill="url(#bg)"/>
  <!-- Wave pattern at bottom -->
  <path d="M0,420 C100,390 200,440 300,410 C400,380 500,430 600,400 C700,370 750,410 800,395 L800,500 L0,500 Z" fill="rgba(255,255,255,0.08)"/>
  <path d="M0,450 C120,430 220,470 350,440 C450,420 550,460 680,435 C740,425 770,445 800,440 L800,500 L0,500 Z" fill="rgba(255,255,255,0.06)"/>
  <path d="M0,475 C80,465 180,485 300,470 C400,460 520,480 650,468 C720,462 760,478 800,472 L800,500 L0,500 Z" fill="rgba(255,255,255,0.04)"/>
  <!-- Light bulb / enlightenment icon -->
  <g transform="translate(400,165)" fill="none" stroke="white" stroke-width="3" stroke-linecap="round" stroke-linejoin="round">
    <!-- Light bulb -->
    <path d="M-20,5 C-20,-15 -25,-25 -20,-38 C-15,-50 -5,-55 0,-55 C5,-55 15,-50 20,-38 C25,-25 20,-15 20,5" fill="rgba(255,255,255,0.15)" stroke="white"/>
    <!-- Bulb base -->
    <line x1="-15" y1="10" x2="15" y2="10"/>
    <line x1="-12" y1="17" x2="12" y2="17"/>
    <line x1="-9" y1="24" x2="9" y2="24"/>
    <!-- Filament -->
    <path d="M-6,-10 C-3,-20 3,-20 6,-10" stroke="rgba(255,255,255,0.6)" stroke-width="2"/>
    <!-- Light rays -->
    <line x1="0" y1="-65" x2="0" y2="-72" stroke="rgba(255,255,255,0.5)" stroke-width="2"/>
    <line x1="-25" y1="-55" x2="-32" y2="-60" stroke="rgba(255,255,255,0.5)" stroke-width="2"/>
    <line x1="25" y1="-55" x2="32" y2="-60" stroke="rgba(255,255,255,0.5)" stroke-width="2"/>
    <line x1="-35" y1="-35" x2="-42" y2="-35" stroke="rgba(255,255,255,0.4)" stroke-width="2"/>
    <line x1="35" y1="-35" x2="42" y2="-35" stroke="rgba(255,255,255,0.4)" stroke-width="2"/>
    <!-- House outline beneath -->
    <path d="M-30,40 L-30,55 L30,55 L30,40 L0,28 Z" fill="rgba(255,255,255,0.1)" stroke="rgba(255,255,255,0.5)" stroke-width="2"/>
    <rect x="-6" y="42" width="12" height="13" fill="rgba(255,255,255,0.15)" stroke="rgba(255,255,255,0.5)" stroke-width="1.5"/>
  </g>
  <!-- Partner name -->
  <text x="400" y="295" text-anchor="middle" font-family="'Segoe UI', Arial, sans-serif" font-size="36" font-weight="700" fill="white" letter-spacing="1">La Casa de la Luz</text>
  <text x="400" y="325" text-anchor="middle" font-family="'Segoe UI', Arial, sans-serif" font-size="16" fill="rgba(255,255,255,0.7)" letter-spacing="3">EDUCATION</text>
</svg>